<svg xmlns="http://www.w3.org/2000/svg" xmlns:xlink="http://www.w3.org/1999/xlink" width="1000" zoomAndPan="magnify" viewBox="0 0 750 390.749986" height="521" preserveAspectRatio="xMidYMid meet" version="1.0"><defs><g/><clipPath id="14cf4c4217"><path d="M 0.238281 0 L 749.757812 0 L 749.757812 390.5 L 0.238281 390.5 Z M 0.238281 0 " clip-rule="nonzero"/></clipPath><clipPath id="a5bd0c33c0"><path d="M 749.308594 0 L 0.238281 0 L 0.238281 300.195312 L 75.898438 300.195312 L 75.898438 390.5 L 222.945312 300.195312 L 749.308594 300.195312 Z M 749.308594 0 " clip-rule="nonzero"/></clipPath></defs><g clip-path="url(#14cf4c4217)"><g clip-path="url(#a5bd0c33c0)"><path fill="#dffe00" d="M 0.238281 0 L 749.207031 0 L 749.207031 390.5 L 0.238281 390.5 Z M 0.238281 0 " fill-opacity="1" fill-rule="nonzero"/></g></g><g fill="#000000" fill-opacity="1"><g transform="translate(34.944122, 195.07462)"><g><path d="M 74.28125 -56.796875 L 73.90625 -56.796875 L 67.578125 -44.140625 L 50.71875 -13.515625 L 34.21875 -44.015625 L 27.65625 -57.65625 L 27.28125 -57.65625 L 27.28125 0 L 9.546875 0 L 9.546875 -86.546875 L 29.515625 -86.546875 L 50.71875 -46 L 50.96875 -46 L 71.921875 -86.546875 L 92.015625 -86.546875 L 92.015625 0 L 74.28125 0 Z M 74.28125 -56.796875 "/></g></g></g><g fill="#000000" fill-opacity="1"><g transform="translate(136.498927, 195.07462)"><g><path d="M 44.265625 1.484375 C 38.566406 1.484375 33.359375 0.535156 28.640625 -1.359375 C 23.929688 -3.265625 19.921875 -6.097656 16.609375 -9.859375 C 13.304688 -13.617188 10.742188 -18.285156 8.921875 -23.859375 C 7.109375 -29.441406 6.203125 -35.914062 6.203125 -43.28125 C 6.203125 -50.632812 7.109375 -57.097656 8.921875 -62.671875 C 10.742188 -68.253906 13.304688 -72.925781 16.609375 -76.6875 C 19.921875 -80.457031 23.929688 -83.289062 28.640625 -85.1875 C 33.359375 -87.09375 38.566406 -88.046875 44.265625 -88.046875 C 49.972656 -88.046875 55.179688 -87.09375 59.890625 -85.1875 C 64.597656 -83.289062 68.601562 -80.457031 71.90625 -76.6875 C 75.21875 -72.925781 77.785156 -68.253906 79.609375 -62.671875 C 81.429688 -57.097656 82.34375 -50.632812 82.34375 -43.28125 C 82.34375 -35.914062 81.429688 -29.441406 79.609375 -23.859375 C 77.785156 -18.285156 75.21875 -13.617188 71.90625 -9.859375 C 68.601562 -6.097656 64.597656 -3.265625 59.890625 -1.359375 C 55.179688 0.535156 49.972656 1.484375 44.265625 1.484375 Z M 44.265625 -15.25 C 49.972656 -15.25 54.414062 -17.109375 57.59375 -20.828125 C 60.78125 -24.546875 62.375 -29.878906 62.375 -36.828125 L 62.375 -49.71875 C 62.375 -56.664062 60.78125 -62 57.59375 -65.71875 C 54.414062 -69.4375 49.972656 -71.296875 44.265625 -71.296875 C 38.566406 -71.296875 34.125 -69.4375 30.9375 -65.71875 C 27.75 -62 26.15625 -56.664062 26.15625 -49.71875 L 26.15625 -36.828125 C 26.15625 -29.878906 27.75 -24.546875 30.9375 -20.828125 C 34.125 -17.109375 38.566406 -15.25 44.265625 -15.25 Z M 44.265625 -15.25 "/></g></g></g><g fill="#000000" fill-opacity="1"><g transform="translate(225.033894, 195.07462)"><g><path d="M 9.546875 -86.546875 L 42.15625 -86.546875 C 47.863281 -86.546875 53.070312 -85.632812 57.78125 -83.8125 C 62.5 -82 66.507812 -79.296875 69.8125 -75.703125 C 73.113281 -72.109375 75.675781 -67.601562 77.5 -62.1875 C 79.320312 -56.769531 80.234375 -50.46875 80.234375 -43.28125 C 80.234375 -36.082031 79.320312 -29.773438 77.5 -24.359375 C 75.675781 -18.953125 73.113281 -14.445312 69.8125 -10.84375 C 66.507812 -7.25 62.5 -4.539062 57.78125 -2.71875 C 53.070312 -0.90625 47.863281 0 42.15625 0 L 9.546875 0 Z M 42.15625 -16.734375 C 47.78125 -16.734375 52.203125 -18.300781 55.421875 -21.4375 C 58.648438 -24.582031 60.265625 -29.628906 60.265625 -36.578125 L 60.265625 -49.96875 C 60.265625 -56.914062 58.648438 -61.957031 55.421875 -65.09375 C 52.203125 -68.238281 47.78125 -69.8125 42.15625 -69.8125 L 28.390625 -69.8125 L 28.390625 -16.734375 Z M 42.15625 -16.734375 "/></g></g></g><g fill="#000000" fill-opacity="1"><g transform="translate(311.460878, 195.07462)"><g><path d="M 9.546875 0 L 9.546875 -86.546875 L 68.453125 -86.546875 L 68.453125 -69.8125 L 28.390625 -69.8125 L 28.390625 -52.078125 L 62.75 -52.078125 L 62.75 -35.46875 L 28.390625 -35.46875 L 28.390625 -16.734375 L 68.453125 -16.734375 L 68.453125 0 Z M 9.546875 0 "/></g></g></g><g fill="#000000" fill-opacity="1"><g transform="translate(386.727994, 195.07462)"><g><path d="M 44.515625 1.484375 C 38.648438 1.484375 33.359375 0.554688 28.640625 -1.296875 C 23.929688 -3.160156 19.921875 -5.929688 16.609375 -9.609375 C 13.304688 -13.285156 10.742188 -17.875 8.921875 -23.375 C 7.109375 -28.875 6.203125 -35.300781 6.203125 -42.65625 C 6.203125 -49.925781 7.109375 -56.394531 8.921875 -62.0625 C 10.742188 -67.726562 13.304688 -72.484375 16.609375 -76.328125 C 19.921875 -80.171875 23.929688 -83.082031 28.640625 -85.0625 C 33.359375 -87.050781 38.648438 -88.046875 44.515625 -88.046875 C 52.535156 -88.046875 59.148438 -86.410156 64.359375 -83.140625 C 69.566406 -79.878906 73.738281 -74.734375 76.875 -67.703125 L 60.640625 -59.265625 C 59.484375 -62.910156 57.679688 -65.828125 55.234375 -68.015625 C 52.796875 -70.203125 49.222656 -71.296875 44.515625 -71.296875 C 38.972656 -71.296875 34.523438 -69.5 31.171875 -65.90625 C 27.828125 -62.3125 26.15625 -57.082031 26.15625 -50.21875 L 26.15625 -36.328125 C 26.15625 -29.472656 27.828125 -24.242188 31.171875 -20.640625 C 34.523438 -17.046875 38.972656 -15.25 44.515625 -15.25 C 49.140625 -15.25 52.835938 -16.507812 55.609375 -19.03125 C 58.378906 -21.550781 60.425781 -24.585938 61.75 -28.140625 L 77.125 -19.21875 C 73.90625 -12.601562 69.671875 -7.5 64.421875 -3.90625 C 59.171875 -0.3125 52.535156 1.484375 44.515625 1.484375 Z M 44.515625 1.484375 "/></g></g></g><g fill="#000000" fill-opacity="1"><g transform="translate(467.451049, 195.07462)"><g><path d="M 61.375 -35.46875 L 28.390625 -35.46875 L 28.390625 0 L 9.546875 0 L 9.546875 -86.546875 L 28.390625 -86.546875 L 28.390625 -52.078125 L 61.375 -52.078125 L 61.375 -86.546875 L 80.234375 -86.546875 L 80.234375 0 L 61.375 0 Z M 61.375 -35.46875 "/></g></g></g><g fill="#000000" fill-opacity="1"><g transform="translate(557.226011, 195.07462)"><g><path d="M 62.875 0 L 56.671875 -20.578125 L 27.78125 -20.578125 L 21.578125 0 L 2.484375 0 L 31 -86.546875 L 54.3125 -86.546875 L 82.453125 0 Z M 42.40625 -69.4375 L 41.78125 -69.4375 L 32.234375 -36.578125 L 52.078125 -36.578125 Z M 42.40625 -69.4375 "/></g></g></g><g fill="#000000" fill-opacity="1"><g transform="translate(642.165033, 195.07462)"><g><path d="M 45.625 -69.8125 L 45.625 0 L 26.78125 0 L 26.78125 -69.8125 L 3.34375 -69.8125 L 3.34375 -86.546875 L 69.0625 -86.546875 L 69.0625 -69.8125 Z M 45.625 -69.8125 "/></g></g></g></svg>